# xmcd CD database file
#
# Track frame offsets:
#	150
#	18240
#	29316
#	52399
#	63522
#	85896
#	95684
#	115265
#	128656
#	148689
#	180979
#	199728
#	225872
#	249206
#	254665
#	272934
#
# Disc length: 3835 seconds
#
# Revision: 6
# Processed by: cddbd v1.5.2PL0 Copyright (c) Steve Scherf et al.
# Submitted via: CDex 1.70beta3
#
DISCID=de0ef910
DTITLE=秋月律子 (若林直美) - THE IDOLM@STER MASTER ARTIST 10 秋月律子
DYEAR=2007
DGENRE=Game
TTITLE0=いっぱいいっぱい
TTITLE1=トーク01
TTITLE2=東京は夜の七時～the night is still young～
TTITLE3=トーク02
TTITLE4=1／6の夢旅人2002
TTITLE5=トーク03
TTITLE6=My Best Friend(M@STER VERSION)
TTITLE7=トーク04
TTITLE8=思い出をありがとう(M@STER VERSION)
TTITLE9=トーク05
TTITLE10=魔法をかけて！(M@STER VERSION)
TTITLE11=トーク06
TTITLE12=i
TTITLE13=トーク07
TTITLE14=いっぱいいっぱい（オリジナル・カラオケ）
TTITLE15=トーク08
EXTD=YEAR: 2007
EXTT0=
EXTT1=
EXTT2=
EXTT3=
EXTT4=
EXTT5=
EXTT6=
EXTT7=
EXTT8=
EXTT9=
EXTT10=
EXTT11=
EXTT12=
EXTT13=
EXTT14=
EXTT15=
PLAYORDER=
